<?xml version="1.0" encoding="UTF-8"?>
<svg xmlns="http://www.w3.org/2000/svg" version="1.1" viewBox="0 0 1000 1000">
  <!-- Generator: Adobe Illustrator 28.6.0, SVG Export Plug-In . SVG Version: 1.2.0 Build 709)  -->
  <g>
    <g id="Layer_1">
      <g id="y2k_Asset_by_Annorastd-22">
        <path
          d="M482.2,22v333.1c-5.8,17.2-12.9,32.5-21.5,46.3-18.8-4.8-37.8-12.6-57.4-23.7l-228.4-228.4-25.3,25.3,238.7,238.7c7.3,14.7,12.8,29.2,16.5,43.5-17.2,10.5-36.9,18.8-59.4,25.1H22.4v35.7h337.6c17,5.7,32.2,12.8,45.7,21.2-3.6,15.6-9.4,31.3-17.3,47.4l-238.7,238.7,25.3,25.3,228.4-228.4c20.4-11.5,40.2-19.6,59.8-24.3,7.5,12.7,13.9,26.8,19.1,42.4v337.6h35.7v-323c6-21.6,13.9-40.7,23.8-57.3,15.8,3.6,31.7,9.4,47.9,17.5l235.5,235.5,25.3-25.3-225.2-225.2c-11.9-21.1-20.1-41.6-24.8-61.8,13.2-8,27.9-14.7,44.2-20.2h333.1v-35.7h-318.5c-21.8-6.1-41-14.1-57.7-24.1,4.8-19,12.6-38.2,23.7-57.9l225.2-225.2-25.3-25.3-235.5,235.5c-15.4,7.7-30.5,13.3-45.5,16.9-11.1-17.6-19.7-37.9-26.2-61.2V22h-35.7Z" />
      </g>
    </g>
  </g>
</svg>